<svg width="14" height="14" viewBox="0 0 14 14" fill="none" xmlns="http://www.w3.org/2000/svg">
<path fill-rule="evenodd" clip-rule="evenodd" d="M3.76923 2.15385C3.76923 0.964309 4.73354 0 5.92308 0H8.07692C9.26646 0 10.2308 0.96431 10.2308 2.15385V2.30101C10.9002 2.36229 11.5643 2.44243 12.2224 2.5409C13.2663 2.6971 14 3.60527 14 4.63485V6.81254C14 7.68207 13.4733 8.50141 12.6099 8.78847C10.8458 9.37497 8.95941 9.69231 7.00003 9.69231C5.04062 9.69231 3.15425 9.37496 1.39014 8.78845C0.526716 8.50139 0 7.68205 0 6.81252V4.63485C0 3.60527 0.733677 2.6971 1.77761 2.5409C2.43571 2.44244 3.09977 2.36229 3.76923 2.30101V2.15385ZM9.15385 2.15385V2.21905C8.44139 2.17579 7.72323 2.15385 7.00001 2.15385C6.27677 2.15385 5.55861 2.17579 4.84615 2.21905V2.15385C4.84615 1.55908 5.32831 1.07692 5.92308 1.07692H8.07692C8.67169 1.07692 9.15385 1.55908 9.15385 2.15385ZM7 8.07692C7.29738 8.07692 7.53846 7.83584 7.53846 7.53846C7.53846 7.24108 7.29738 7 7 7C6.70262 7 6.46154 7.24108 6.46154 7.53846C6.46154 7.83584 6.70262 8.07692 7 8.07692Z" fill="#4D7CFE"/>
<path d="M0.538462 11.5948V9.58743C0.698591 9.67526 0.869416 9.75021 1.05038 9.81038C2.92268 10.4329 4.9237 10.7692 7.00003 10.7692C9.07633 10.7692 11.0773 10.4329 12.9496 9.8104C13.1306 9.75023 13.3014 9.67527 13.4615 9.58745V11.5948C13.4615 12.6372 12.7097 13.5531 11.6501 13.6937C10.1285 13.8958 8.57628 14 7 14C5.42372 14 3.87151 13.8958 2.34994 13.6937C1.29033 13.5531 0.538462 12.6372 0.538462 11.5948Z" fill="#4D7CFE"/>
</svg>
