<svg width="18" height="12" viewBox="0 0 18 12" fill="none" xmlns="http://www.w3.org/2000/svg">
<path d="M18 2.82955V1.90909C18 0.854727 17.1186 0 16.0312 0H1.96875C0.881438 0 0 0.854727 0 1.90909V2.82955C0 2.87475 0.0185198 2.91811 0.0514851 2.95008C0.0844505 2.98204 0.129161 3 0.175781 3H17.8242C17.8708 3 17.9156 2.98204 17.9485 2.95008C17.9815 2.91811 18 2.87475 18 2.82955ZM0 4.26136V10.0909C0 11.1453 0.881438 12 1.96875 12H16.0312C17.1186 12 18 11.1453 18 10.0909V4.26136C18 4.21616 17.9815 4.1728 17.9485 4.14083C17.9156 4.10887 17.8708 4.09091 17.8242 4.09091H0.175781C0.129161 4.09091 0.0844505 4.10887 0.0514851 4.14083C0.0185198 4.1728 0 4.21616 0 4.26136ZM4.5 8.72727C4.5 9.0285 4.24814 9.27273 3.9375 9.27273H3.375C3.06436 9.27273 2.8125 9.0285 2.8125 8.72727V8.18182C2.8125 7.88059 3.06436 7.63636 3.375 7.63636H3.9375C4.24814 7.63636 4.5 7.88059 4.5 8.18182V8.72727Z" fill="white" fill-opacity="0.5"/>
</svg>
